<svg width="84" height="66" viewBox="0 0 84 66" fill="none" xmlns="http://www.w3.org/2000/svg">
<path d="M-4.28096 9.4545C-5.35806 9.57031 -11.0635 3.90369 -13.7816 1.0559L-14.8768 1.5687L-5.80383 10.7075M-4.28096 9.4545C-2.93458 9.30974 8.42191 -0.733076 26.2452 4.85292C40.5039 9.32171 53.8558 20.9393 58.7494 26.1895C62.6345 31.0379 70.965 42.762 73.2057 50.8703C74.6699 53.5358 78.6075 59.5869 82.6444 62.4668C82.6956 62.6548 82.7066 62.881 82.6324 63.0886M-4.28096 9.4545L-0.971154 11.9906L82.6324 63.0886M-5.80383 10.7075C-7.02212 11.71 -5.46202 18.8507 -4.52968 22.2958C-1.85891 33.813 8.54355 44.5671 13.4109 48.5045C28.1451 61.5069 46.7762 62.7371 51.5555 64.1064C55.379 65.2019 72.0361 64.12 79.8867 63.4422C81.7558 63.9955 82.4503 63.5981 82.6324 63.0886M-5.80383 10.7075L-4.75569 11.2872M-3.70757 11.8668L-4.75569 11.2872M3.54543 16.2534C5.63679 23.8902 11.5868 40.7679 18.6558 47.185M3.54543 16.2534L-4.75569 11.2872M3.54543 16.2534L20.7064 26.6859M20.7064 26.6859C21.6486 34.0678 26.3974 50.8877 37.8548 59.1128M20.7064 26.6859L46.5512 42.3369L49.92 44.4987L62.1699 52.3599M11.5395 19.7319C17.6769 16.7912 32.6699 11.9828 43.542 16.2757M26.3966 29.0505C30.3642 26.086 41.8925 21.9348 56.2653 29.0455M46.5667 41.5375C50.7709 38.6693 60.5243 34.5457 65.9039 40.9964M62.1699 52.3599C62.308 54.1209 62.9983 58.1446 64.6544 60.1512M62.1699 52.3599L82.6324 63.0886M35.5044 36.3905C36.6467 41.4483 40.5118 53.1988 46.8343 59.7391" stroke="#BF9B30"/>
</svg>
