<svg width="90" height="41" viewBox="0 0 90 41" fill="none" xmlns="http://www.w3.org/2000/svg">
<path d="M3.40704 18.2739C2.67256 18.8103 -3.85414 17.0853 -7.02568 16.1558L-7.60663 16.9883L2.82583 19.8242M3.40704 18.2739C4.32514 17.6035 8.36622 5.53508 23.6692 2.11488C35.9116 -0.621277 50.4955 2.22059 56.2571 3.98354C61.1169 5.87777 72.0947 10.9049 77.1273 15.8594C79.3107 17.1827 84.7134 19.9292 88.8573 20.3285C88.9735 20.4437 89.0764 20.6036 89.1096 20.7856M3.40704 18.2739L6.87795 18.7285L89.1096 20.7856M2.82583 19.8242C2.36086 21.0644 6.49249 25.6011 8.61643 27.7145C15.3926 34.9668 27.4696 38.419 32.6612 39.2385C48.8313 42.507 62.8932 35.5809 66.9427 34.5703C70.1824 33.7619 81.8386 25.9834 87.2618 22.1952C88.853 21.8129 89.1911 21.2325 89.1096 20.7856M2.82583 19.8242L3.83116 19.8056M4.83648 19.7871L3.83116 19.8056M11.951 19.9319C16.6771 24.6062 28.0875 34.3794 35.9205 36.0776M11.951 19.9319L3.83116 19.8056M11.951 19.9319L28.8068 20.3132M28.8068 20.3132C32.5904 25.2846 43.1032 35.5201 54.8857 36.6907M28.8068 20.3132L54.1665 20.8436L57.5232 21.0013L69.7291 21.5747M19.2231 19.1053C22.4509 14.391 31.333 4.60179 41.0394 3.15923M33.9363 19.6439C35.5766 15.8232 42.2156 7.96604 55.6499 7.10273M53.8422 20.2559C55.695 16.4059 61.0551 9.31385 67.674 11.7456M69.7291 21.5747C70.5687 22.797 72.7596 25.4326 74.8059 26.1964M69.7291 21.5747L89.1096 20.7856M43.6391 21.1573C46.5926 24.355 54.335 31.2757 61.677 33.3768" stroke="#BF9B30"/>
</svg>
