<svg width="97" height="58" viewBox="0 0 97 58" fill="none" xmlns="http://www.w3.org/2000/svg">
<path d="M91.1432 8.74244C91.5814 7.75174 99.3416 5.64396 103.167 4.71391L103.27 3.5091L90.8195 6.79709M91.1432 8.74244C90.5954 9.98082 93.6144 24.8372 79.8652 37.4797C68.8658 47.5936 52.1287 53.3479 45.1351 54.9609C38.9936 55.9012 24.6751 57.2536 16.5327 55.1399C13.4922 55.0752 6.28304 55.4597 1.77053 57.5159C1.58204 57.4662 1.38068 57.3626 1.23799 57.1945M91.1432 8.74244L87.2919 10.3408L1.23799 57.1945M90.8195 6.79709C90.5605 5.2408 83.5963 3.0215 80.1466 2.10638C68.8371 -1.33924 54.3225 2.29251 48.479 4.53908C29.8515 10.798 19.4706 26.318 15.895 29.7723C13.0345 32.5357 5.6429 47.5022 2.30466 54.64C0.890886 55.982 0.887782 56.7822 1.23799 57.1945M90.8195 6.79709L89.7934 7.41498M88.7674 8.03287L89.7934 7.41498M81.3419 12.1208C73.6826 10.1136 56.0911 6.82759 46.9993 9.74099M81.3419 12.1208L89.7934 7.41498M81.3419 12.1208L63.7267 21.7665M63.7267 21.7665C56.8627 18.8915 39.9218 14.5941 27.07 20.4039M63.7267 21.7665L37.2501 36.3232L33.6935 38.1597L20.7606 44.8379M74.3325 17.3046C73.8105 24.0902 70.4781 39.4787 61.3244 46.7478M58.8338 25.512C59.4173 30.4303 57.2482 42.4897 43.9037 51.3816M37.9347 36.7363C38.3164 41.8114 37.0109 52.3198 28.7347 53.7534M20.7606 44.8379C19.1665 44.077 15.3367 42.663 12.7708 43.0939M20.7606 44.8379L1.23799 57.1945M47.9232 29.7296C42.9719 28.1899 30.8631 25.662 22.0378 27.8672" stroke="#BF9B30"/>
</svg>
