<svg width="50" height="84" viewBox="0 0 50 84" fill="none" xmlns="http://www.w3.org/2000/svg">
<path d="M47.6255 10.4362C47.5282 9.53194 52.2854 4.74212 54.6762 2.46024L54.2457 1.54087L46.5735 9.15771M47.6255 10.4362C47.747 11.5665 56.178 21.1004 51.4885 36.0632C47.7369 48.0335 37.9839 59.2426 33.5763 63.3509C29.5059 66.6125 19.6634 73.606 12.8564 75.4871C10.6187 76.7163 5.53875 80.0219 3.12107 83.411C2.96318 83.454 2.77328 83.4632 2.599 83.4009M47.6255 10.4362L45.4963 13.2148L2.599 83.4009M46.5735 9.15771C45.732 8.13494 39.7372 9.44466 36.845 10.2274C27.1763 12.4695 18.1481 21.2025 14.8426 25.2887C3.9269 37.6582 2.89416 53.2992 1.74454 57.3115C0.824852 60.5214 1.73312 74.5052 2.30221 81.0959C1.83766 82.665 2.17128 83.2481 2.599 83.4009M46.5735 9.15771L46.0869 10.0376M45.6003 10.9175L46.0869 10.0376M41.9177 17.0065C35.5066 18.7622 21.3375 23.7573 15.9503 29.6918M41.9177 17.0065L46.0869 10.0376M41.9177 17.0065L33.1595 31.4134M33.1595 31.4134C26.9624 32.2044 12.8418 36.191 5.93677 45.8096M33.1595 31.4134L20.0203 53.1104L18.2054 55.9384L11.6059 66.2224M38.9974 23.7176C41.4663 28.8701 45.5029 41.4569 41.899 50.5841M31.1744 36.1904C33.6631 39.5212 37.1481 49.1993 31.1786 61.2655M20.6915 53.1234C23.0993 56.6529 26.5611 64.8409 21.1457 69.3572M11.6059 66.2224C10.1275 66.3384 6.74959 66.9179 5.06497 68.3082M11.6059 66.2224L2.599 83.4009M25.0124 43.8365C20.7663 44.7954 10.9016 48.0402 5.41099 53.348" stroke="#BF9B30"/>
</svg>
